<mxfile host="app.diagrams.net" agent="Mozilla/5.0 (Windows NT 10.0; Win64; x64) AppleWebKit/537.36 (KHTML, like Gecko) Chrome/138.0.0.0 Safari/537.36" version="27.1.6">
  <diagram name="Página-1" id="e45OjPIBaFHz5NlUAJ0t">
    <mxGraphModel grid="1" page="1" gridSize="10" guides="1" tooltips="1" connect="1" arrows="1" fold="1" pageScale="1" pageWidth="827" pageHeight="1169" math="0" shadow="0">
      <root>
        <mxCell id="0" />
        <mxCell id="1" parent="0" />
        <mxCell id="2QU0HHwjT5UGIkDu3ld_-1" value=" CU015 Modificar Estado de Evento" style="swimlane;childLayout=stackLayout;resizeParent=1;resizeParentMax=0;startSize=20;horizontal=0;horizontalStack=1;" vertex="1" parent="1">
          <mxGeometry x="40" y="40" width="840" height="640" as="geometry">
            <mxRectangle x="200" y="80" width="40" height="50" as="alternateBounds" />
          </mxGeometry>
        </mxCell>
        <mxCell id="2QU0HHwjT5UGIkDu3ld_-2" style="edgeStyle=orthogonalEdgeStyle;rounded=0;orthogonalLoop=1;jettySize=auto;html=1;entryX=0.5;entryY=0;entryDx=0;entryDy=0;strokeColor=light-dark(#ff0000, #ededed);" edge="1" parent="2QU0HHwjT5UGIkDu3ld_-1" source="VnCoAbdtD36LlzZGN4Us-2" target="2QU0HHwjT5UGIkDu3ld_-14">
          <mxGeometry relative="1" as="geometry">
            <Array as="points">
              <mxPoint x="710" y="108" />
            </Array>
            <mxPoint x="222.5" y="107.5" as="sourcePoint" />
          </mxGeometry>
        </mxCell>
        <mxCell id="2QU0HHwjT5UGIkDu3ld_-4" value="Administrador" style="swimlane;startSize=20;" vertex="1" parent="2QU0HHwjT5UGIkDu3ld_-1">
          <mxGeometry x="20" width="420" height="640" as="geometry" />
        </mxCell>
        <mxCell id="2QU0HHwjT5UGIkDu3ld_-5" value="" style="ellipse;html=1;shape=startState;fillColor=#000000;strokeColor=#ff0000;fillStyle=auto;" vertex="1" parent="2QU0HHwjT5UGIkDu3ld_-4">
          <mxGeometry x="20" y="25" width="30" height="30" as="geometry" />
        </mxCell>
        <mxCell id="2QU0HHwjT5UGIkDu3ld_-7" value="" style="edgeStyle=orthogonalEdgeStyle;html=1;verticalAlign=bottom;endArrow=open;endSize=8;strokeColor=#ff0000;rounded=0;entryX=0.5;entryY=0;entryDx=0;entryDy=0;" edge="1" parent="2QU0HHwjT5UGIkDu3ld_-4" source="2QU0HHwjT5UGIkDu3ld_-5">
          <mxGeometry relative="1" as="geometry">
            <mxPoint x="155" y="80" as="targetPoint" />
            <mxPoint x="340" y="320" as="sourcePoint" />
          </mxGeometry>
        </mxCell>
        <mxCell id="2QU0HHwjT5UGIkDu3ld_-8" value="Seleccionar estado" style="rounded=1;whiteSpace=wrap;html=1;arcSize=40;fontColor=#000000;fillColor=#ffffc0;strokeColor=#ff0000;" vertex="1" parent="2QU0HHwjT5UGIkDu3ld_-4">
          <mxGeometry x="110" y="270" width="120" height="40" as="geometry" />
        </mxCell>
        <mxCell id="2QU0HHwjT5UGIkDu3ld_-9" value="Pulsar el botón &quot;Cambiar&quot;" style="rounded=1;whiteSpace=wrap;html=1;arcSize=40;fontColor=#000000;fillColor=#ffffc0;strokeColor=#ff0000;" vertex="1" parent="2QU0HHwjT5UGIkDu3ld_-4">
          <mxGeometry x="110" y="430" width="120" height="40" as="geometry" />
        </mxCell>
        <mxCell id="2QU0HHwjT5UGIkDu3ld_-12" value="Pulsar el botón &quot;Editar estado de evento&quot;" style="rounded=1;whiteSpace=wrap;html=1;arcSize=40;fontColor=#000000;fillColor=#ffffc0;strokeColor=light-dark(#ff0000, #ededed);" vertex="1" parent="2QU0HHwjT5UGIkDu3ld_-4">
          <mxGeometry x="80" y="200" width="120" height="50" as="geometry" />
        </mxCell>
        <mxCell id="2QU0HHwjT5UGIkDu3ld_-27" value="" style="edgeStyle=orthogonalEdgeStyle;html=1;verticalAlign=bottom;endArrow=open;endSize=8;strokeColor=#ff0000;rounded=0;entryX=0.5;entryY=0;entryDx=0;entryDy=0;exitX=0.5;exitY=1;exitDx=0;exitDy=0;" edge="1" parent="2QU0HHwjT5UGIkDu3ld_-4" source="2QU0HHwjT5UGIkDu3ld_-8" target="2QU0HHwjT5UGIkDu3ld_-9">
          <mxGeometry relative="1" as="geometry">
            <mxPoint x="550" y="330" as="targetPoint" />
            <Array as="points">
              <mxPoint x="170" y="320" />
              <mxPoint x="170" y="320" />
            </Array>
          </mxGeometry>
        </mxCell>
        <mxCell id="VnCoAbdtD36LlzZGN4Us-2" value="Pulsa el apartado &quot;Administrar Eventos&quot;" style="rounded=1;whiteSpace=wrap;html=1;arcSize=40;fontColor=#000000;fillColor=#ffffc0;strokeColor=#ff0000;" vertex="1" parent="2QU0HHwjT5UGIkDu3ld_-4">
          <mxGeometry x="80" y="80" width="120" height="50" as="geometry" />
        </mxCell>
        <mxCell id="2QU0HHwjT5UGIkDu3ld_-13" value="Sistema" style="swimlane;startSize=20;" vertex="1" parent="2QU0HHwjT5UGIkDu3ld_-1">
          <mxGeometry x="440" width="400" height="640" as="geometry" />
        </mxCell>
        <mxCell id="2QU0HHwjT5UGIkDu3ld_-14" value="Mostrar apartado" style="rounded=1;whiteSpace=wrap;html=1;arcSize=40;fontColor=#000000;fillColor=#ffffc0;strokeColor=#ff0000;" vertex="1" parent="2QU0HHwjT5UGIkDu3ld_-13">
          <mxGeometry x="210" y="130" width="120" height="50" as="geometry" />
        </mxCell>
        <mxCell id="2QU0HHwjT5UGIkDu3ld_-15" value="Mostrar formulario edición de estado" style="rounded=1;whiteSpace=wrap;html=1;arcSize=40;fontColor=#000000;fillColor=#ffffc0;strokeColor=light-dark(#ff0000, #ededed);" vertex="1" parent="2QU0HHwjT5UGIkDu3ld_-13">
          <mxGeometry x="210" y="240" width="120" height="40" as="geometry" />
        </mxCell>
        <mxCell id="2QU0HHwjT5UGIkDu3ld_-17" value="Guarda los datos&amp;nbsp;" style="rounded=1;whiteSpace=wrap;html=1;arcSize=40;fontColor=#000000;fillColor=#ffffc0;strokeColor=#ff0000;" vertex="1" parent="2QU0HHwjT5UGIkDu3ld_-13">
          <mxGeometry x="110" y="340" width="120" height="40" as="geometry" />
        </mxCell>
        <mxCell id="2QU0HHwjT5UGIkDu3ld_-18" value="" style="edgeStyle=orthogonalEdgeStyle;html=1;verticalAlign=bottom;endArrow=open;endSize=8;strokeColor=#ff0000;rounded=0;entryX=0.5;entryY=0;entryDx=0;entryDy=0;" edge="1" parent="2QU0HHwjT5UGIkDu3ld_-13" source="2QU0HHwjT5UGIkDu3ld_-17" target="2QU0HHwjT5UGIkDu3ld_-25">
          <mxGeometry relative="1" as="geometry">
            <mxPoint x="250" y="580" as="targetPoint" />
          </mxGeometry>
        </mxCell>
        <mxCell id="2QU0HHwjT5UGIkDu3ld_-19" value="Estado de evento editado" style="rounded=1;whiteSpace=wrap;html=1;arcSize=40;fontColor=#000000;fillColor=#ffffc0;strokeColor=#ff0000;" vertex="1" parent="2QU0HHwjT5UGIkDu3ld_-13">
          <mxGeometry x="90" y="420" width="120" height="40" as="geometry" />
        </mxCell>
        <mxCell id="2QU0HHwjT5UGIkDu3ld_-20" value="" style="edgeStyle=orthogonalEdgeStyle;html=1;verticalAlign=bottom;endArrow=open;endSize=8;strokeColor=#ff0000;rounded=0;entryX=0;entryY=0.5;entryDx=0;entryDy=0;" edge="1" parent="2QU0HHwjT5UGIkDu3ld_-13" source="2QU0HHwjT5UGIkDu3ld_-19" target="2QU0HHwjT5UGIkDu3ld_-25">
          <mxGeometry relative="1" as="geometry">
            <mxPoint x="250" y="660" as="targetPoint" />
          </mxGeometry>
        </mxCell>
        <mxCell id="2QU0HHwjT5UGIkDu3ld_-21" value="" style="ellipse;html=1;shape=endState;fillColor=#000000;strokeColor=#ff0000;" vertex="1" parent="2QU0HHwjT5UGIkDu3ld_-13">
          <mxGeometry x="290" y="600" width="30" height="30" as="geometry" />
        </mxCell>
        <mxCell id="2QU0HHwjT5UGIkDu3ld_-24" style="edgeStyle=orthogonalEdgeStyle;rounded=0;orthogonalLoop=1;jettySize=auto;html=1;entryX=0.5;entryY=0;entryDx=0;entryDy=0;strokeColor=#FF0000;" edge="1" parent="2QU0HHwjT5UGIkDu3ld_-13" source="2QU0HHwjT5UGIkDu3ld_-25" target="2QU0HHwjT5UGIkDu3ld_-21">
          <mxGeometry relative="1" as="geometry" />
        </mxCell>
        <mxCell id="2QU0HHwjT5UGIkDu3ld_-25" value="Mostrar mensaje de éxito" style="rounded=1;whiteSpace=wrap;html=1;arcSize=40;fontColor=#000000;fillColor=#ffffc0;strokeColor=#ff0000;" vertex="1" parent="2QU0HHwjT5UGIkDu3ld_-13">
          <mxGeometry x="245" y="520" width="120" height="40" as="geometry" />
        </mxCell>
        <mxCell id="2QU0HHwjT5UGIkDu3ld_-11" value="" style="shape=line;html=1;strokeWidth=6;strokeColor=#ff0000;rotation=-91;" vertex="1" parent="2QU0HHwjT5UGIkDu3ld_-13">
          <mxGeometry x="-40" y="370" width="120" height="30" as="geometry" />
        </mxCell>
        <mxCell id="2QU0HHwjT5UGIkDu3ld_-29" style="edgeStyle=orthogonalEdgeStyle;rounded=0;orthogonalLoop=1;jettySize=auto;html=1;exitX=0.75;exitY=0.5;exitDx=0;exitDy=0;exitPerimeter=0;strokeColor=#FF0000;" edge="1" parent="2QU0HHwjT5UGIkDu3ld_-13" source="2QU0HHwjT5UGIkDu3ld_-11" target="2QU0HHwjT5UGIkDu3ld_-17">
          <mxGeometry relative="1" as="geometry">
            <Array as="points" />
          </mxGeometry>
        </mxCell>
        <mxCell id="2QU0HHwjT5UGIkDu3ld_-30" style="edgeStyle=orthogonalEdgeStyle;rounded=0;orthogonalLoop=1;jettySize=auto;html=1;entryX=0;entryY=0.5;entryDx=0;entryDy=0;exitX=0.25;exitY=0.5;exitDx=0;exitDy=0;exitPerimeter=0;strokeColor=light-dark(#FF0800,#D7817E);" edge="1" parent="2QU0HHwjT5UGIkDu3ld_-13" source="2QU0HHwjT5UGIkDu3ld_-11" target="2QU0HHwjT5UGIkDu3ld_-19">
          <mxGeometry relative="1" as="geometry">
            <Array as="points">
              <mxPoint x="40" y="415" />
              <mxPoint x="40" y="480" />
              <mxPoint x="70" y="480" />
              <mxPoint x="70" y="440" />
            </Array>
          </mxGeometry>
        </mxCell>
        <mxCell id="2QU0HHwjT5UGIkDu3ld_-26" style="edgeStyle=orthogonalEdgeStyle;rounded=0;orthogonalLoop=1;jettySize=auto;html=1;strokeColor=light-dark(#ff0000, #ededed);" edge="1" parent="2QU0HHwjT5UGIkDu3ld_-1" source="2QU0HHwjT5UGIkDu3ld_-15" target="2QU0HHwjT5UGIkDu3ld_-8">
          <mxGeometry relative="1" as="geometry">
            <mxPoint x="489.9599999999998" y="293.43000000000006" as="targetPoint" />
            <Array as="points">
              <mxPoint x="490" y="260" />
            </Array>
          </mxGeometry>
        </mxCell>
        <mxCell id="2QU0HHwjT5UGIkDu3ld_-34" style="edgeStyle=orthogonalEdgeStyle;rounded=0;orthogonalLoop=1;jettySize=auto;html=1;entryX=1;entryY=0.25;entryDx=0;entryDy=0;strokeColor=light-dark(#ff0000, #ededed);" edge="1" parent="2QU0HHwjT5UGIkDu3ld_-1" source="2QU0HHwjT5UGIkDu3ld_-14" target="2QU0HHwjT5UGIkDu3ld_-12">
          <mxGeometry relative="1" as="geometry">
            <Array as="points">
              <mxPoint x="710" y="213" />
              <mxPoint x="235" y="213" />
            </Array>
          </mxGeometry>
        </mxCell>
        <mxCell id="2QU0HHwjT5UGIkDu3ld_-35" style="edgeStyle=orthogonalEdgeStyle;rounded=0;orthogonalLoop=1;jettySize=auto;html=1;entryX=0;entryY=0;entryDx=0;entryDy=0;strokeColor=light-dark(#ff0000, #ededed);exitX=1;exitY=0.75;exitDx=0;exitDy=0;" edge="1" parent="2QU0HHwjT5UGIkDu3ld_-1" source="2QU0HHwjT5UGIkDu3ld_-12" target="2QU0HHwjT5UGIkDu3ld_-15">
          <mxGeometry relative="1" as="geometry">
            <Array as="points">
              <mxPoint x="220" y="240" />
            </Array>
          </mxGeometry>
        </mxCell>
        <mxCell id="2QU0HHwjT5UGIkDu3ld_-10" value="" style="edgeStyle=orthogonalEdgeStyle;html=1;verticalAlign=bottom;endArrow=open;endSize=8;strokeColor=#ff0000;rounded=0;exitX=1;exitY=0.5;exitDx=0;exitDy=0;entryX=0.417;entryY=0.377;entryDx=0;entryDy=0;entryPerimeter=0;" edge="1" parent="2QU0HHwjT5UGIkDu3ld_-1" source="2QU0HHwjT5UGIkDu3ld_-9" target="2QU0HHwjT5UGIkDu3ld_-11">
          <mxGeometry relative="1" as="geometry">
            <mxPoint x="190" y="570" as="targetPoint" />
            <Array as="points">
              <mxPoint x="408" y="450" />
              <mxPoint x="408" y="390" />
              <mxPoint x="456" y="390" />
            </Array>
          </mxGeometry>
        </mxCell>
      </root>
    </mxGraphModel>
  </diagram>
</mxfile>
